<?xml version="1.0" encoding="UTF-8"?>
<svg xmlns="http://www.w3.org/2000/svg" xmlns:xlink="http://www.w3.org/1999/xlink" width="24px" height="24px" viewBox="0 0 24 24" version="1.1">
<g id="surface1">
<path style=" stroke:none;fill-rule:nonzero;fill:rgb(25.882353%,64.705882%,96.078431%);fill-opacity:1;" d="M 14.808594 1.5 L 16.527344 4.152344 L 19.683594 4.3125 L 19.84375 7.46875 L 22.5 9.183594 L 21.058594 11.996094 L 22.5 14.808594 L 19.847656 16.527344 L 19.6875 19.683594 L 16.53125 19.84375 L 14.816406 22.5 L 12.003906 21.058594 L 9.191406 22.5 L 7.472656 19.847656 L 4.316406 19.6875 L 4.15625 16.53125 L 1.5 14.816406 L 2.941406 12.003906 L 1.5 9.191406 L 4.152344 7.472656 L 4.3125 4.316406 L 7.46875 4.15625 L 9.183594 1.5 L 11.996094 2.941406 Z M 14.808594 1.5 "/>
<path style=" stroke:none;fill-rule:nonzero;fill:rgb(100%,100%,100%);fill-opacity:1;" d="M 10.699219 15.628906 L 7.449219 12.378906 L 8.511719 11.320312 L 10.714844 13.523438 L 15.496094 8.886719 L 16.542969 9.964844 Z M 10.699219 15.628906 "/>
</g>
</svg>
