<?xml version="1.0" encoding="UTF-8"?>
<svg xmlns="http://www.w3.org/2000/svg" xmlns:xlink="http://www.w3.org/1999/xlink" width="24px" height="24px" viewBox="0 0 24 24" version="1.1">
<g id="surface1">
<path style=" stroke:none;fill-rule:nonzero;fill:rgb(0%,0%,0%);fill-opacity:1;" d="M 21.75 12 C 21.75 6.613281 17.386719 2.25 12 2.25 C 6.613281 2.25 2.25 6.613281 2.25 12 C 2.25 17.386719 6.613281 21.75 12 21.75 C 17.386719 21.75 21.75 17.386719 21.75 12 Z M 0 12 C 0 5.371094 5.371094 0 12 0 C 18.628906 0 24 5.371094 24 12 C 24 18.628906 18.628906 24 12 24 C 5.371094 24 0 18.628906 0 12 Z M 14.375 15.238281 L 7.613281 17.839844 C 6.703125 18.191406 5.808594 17.296875 6.160156 16.386719 L 8.761719 9.625 C 8.914062 9.226562 9.226562 8.914062 9.625 8.761719 L 16.386719 6.160156 C 17.296875 5.808594 18.191406 6.703125 17.839844 7.613281 L 15.238281 14.375 C 15.089844 14.773438 14.773438 15.085938 14.375 15.238281 Z M 13.5 12 C 13.5 11.171875 12.828125 10.5 12 10.5 C 11.171875 10.5 10.5 11.171875 10.5 12 C 10.5 12.828125 11.171875 13.5 12 13.5 C 12.828125 13.5 13.5 12.828125 13.5 12 Z M 13.5 12 "/>
</g>
</svg>
