<?xml version="1.0" encoding="UTF-8"?>
<svg xmlns="http://www.w3.org/2000/svg" xmlns:xlink="http://www.w3.org/1999/xlink" width="24px" height="24px" viewBox="0 0 24 24" version="1.1">
<g id="surface1">
<path style=" stroke:none;fill-rule:nonzero;fill:rgb(0%,0%,0%);fill-opacity:1;" d="M 16.285156 6 C 16.285156 3.929688 14.367188 2.25 12 2.25 C 9.632812 2.25 7.714844 3.929688 7.714844 6 C 7.714844 8.070312 9.632812 9.75 12 9.75 C 14.367188 9.75 16.285156 8.070312 16.285156 6 Z M 5.144531 6 C 5.144531 2.6875 8.214844 0 12 0 C 15.785156 0 18.855469 2.6875 18.855469 6 C 18.855469 9.3125 15.785156 12 12 12 C 8.214844 12 5.144531 9.3125 5.144531 6 Z M 2.640625 21.75 L 21.363281 21.75 C 20.886719 18.78125 17.972656 16.5 14.453125 16.5 L 9.558594 16.5 C 6.039062 16.5 3.125 18.78125 2.644531 21.75 Z M 0 22.609375 C 0 17.992188 4.273438 14.25 9.550781 14.25 L 14.449219 14.25 C 19.726562 14.25 24 17.992188 24 22.609375 C 24 23.375 23.289062 24 22.410156 24 L 1.589844 24 C 0.710938 24 0 23.375 0 22.609375 Z M 0 22.609375 "/>
</g>
</svg>
